<?xml version="1.0" encoding="UTF-8"?>
<svg id="Calque_2" data-name="Calque 2" xmlns="http://www.w3.org/2000/svg" xmlns:xlink="http://www.w3.org/1999/xlink" viewBox="0 0 1918 1918">
  <defs>
    <style>
      .cls-1 {
        fill: #004771;
      }

      .cls-2 {
        fill: url(#linear-gradient-2);
      }

      .cls-3 {
        fill: #29eaf0;
      }

      .cls-4 {
        fill: #fff;
      }

      .cls-5 {
        fill: url(#linear-gradient-4);
      }

      .cls-6 {
        fill: url(#linear-gradient-3);
      }

      .cls-7 {
        fill: url(#linear-gradient);
      }
    </style>
    <linearGradient id="linear-gradient" x1="536.97" y1="434.97" x2="1121.4" y2="710.29" gradientUnits="userSpaceOnUse">
      <stop offset="0" stop-color="#038cd9"/>
      <stop offset=".08" stop-color="#02a6df"/>
      <stop offset=".2" stop-color="#01c6e7"/>
      <stop offset=".31" stop-color="#00deed"/>
      <stop offset=".42" stop-color="#00ecf0"/>
      <stop offset=".51" stop-color="#00f1f2"/>
      <stop offset=".54" stop-color="#0af1f2"/>
      <stop offset=".6" stop-color="#24f3f3"/>
      <stop offset=".68" stop-color="#50f5f6"/>
      <stop offset=".77" stop-color="#8df8f9"/>
      <stop offset=".87" stop-color="#dafcfd"/>
      <stop offset=".92" stop-color="#fff"/>
    </linearGradient>
    <linearGradient id="linear-gradient-2" x1="670.06" y1="855.78" x2="1096.94" y2="855.78" gradientUnits="userSpaceOnUse">
      <stop offset=".04" stop-color="#038cd9"/>
      <stop offset=".14" stop-color="#0299dc"/>
      <stop offset=".34" stop-color="#01bee5"/>
      <stop offset=".57" stop-color="#00f1f2"/>
      <stop offset=".6" stop-color="#0ef1f2"/>
      <stop offset=".66" stop-color="#33f3f4"/>
      <stop offset=".74" stop-color="#6ff7f7"/>
      <stop offset=".84" stop-color="#c2fbfb"/>
      <stop offset=".91" stop-color="#fff"/>
    </linearGradient>
    <linearGradient id="linear-gradient-3" x1="659.05" y1="1260.64" x2="1007.14" y2="979.25" gradientUnits="userSpaceOnUse">
      <stop offset=".06" stop-color="#038cd9"/>
      <stop offset=".12" stop-color="#0299dc"/>
      <stop offset=".24" stop-color="#01bee5"/>
      <stop offset=".38" stop-color="#00f1f2"/>
      <stop offset=".43" stop-color="#31f3f4"/>
      <stop offset=".47" stop-color="#61f6f6"/>
      <stop offset=".52" stop-color="#8bf8f9"/>
      <stop offset=".57" stop-color="#affafa"/>
      <stop offset=".63" stop-color="#ccfcfc"/>
      <stop offset=".68" stop-color="#e2fdfd"/>
      <stop offset=".75" stop-color="#f2fefe"/>
      <stop offset=".82" stop-color="#fcfefe"/>
      <stop offset=".91" stop-color="#fff"/>
    </linearGradient>
    <linearGradient id="linear-gradient-4" x1="823.73" y1="1303.21" x2="1004.23" y2="1109.6" gradientUnits="userSpaceOnUse">
      <stop offset=".06" stop-color="#038cd9"/>
      <stop offset=".12" stop-color="#0299dc"/>
      <stop offset=".25" stop-color="#01bee5"/>
      <stop offset=".4" stop-color="#00f1f2"/>
      <stop offset=".48" stop-color="#33f3f4"/>
      <stop offset=".58" stop-color="#70f7f7"/>
      <stop offset=".68" stop-color="#a3f9fa"/>
      <stop offset=".77" stop-color="#cbfcfc"/>
      <stop offset=".86" stop-color="#e7fdfd"/>
      <stop offset=".93" stop-color="#f8fefe"/>
      <stop offset=".98" stop-color="#fff"/>
    </linearGradient>
  </defs>
  <g id="Mask">
    <rect class="cls-1" width="1918" height="1918"/>
    <g>
      <path class="cls-4" d="M508.93,1593.57h13.75v56.37h9.75v12.48h-23.51v-68.86Z"/>
      <path class="cls-4" d="M535.75,1593.57h27.99v12.29h-14.24v14.34h13.95v12h-13.95v18.04h14.24v12.19h-27.99v-68.86Z"/>
      <path class="cls-4" d="M568.13,1655.11c-1.17-2.63-1.46-4.39-1.46-13.65h14.53c0,6.63.1,7.41.49,8.39.59,1.46,1.85,2.34,4,2.34,1.95,0,3.32-.78,3.9-2.15.39-.78.39-1.37.39-5.56,0-3.61-.1-4.68-.68-6.14-1.37-2.93-5.07-4.1-9.56-6.05-5.07-2.54-8.97-5.17-10.83-9.27-1.27-2.83-1.56-5.75-1.56-11.8,0-5.56.29-7.7,1.56-10.44,2.44-5.46,8-8.49,16.48-8.49s13.75,2.73,16.29,8.19c1.17,2.73,1.46,4.29,1.46,13.46h-13.95c0-6.53-.1-7.31-.49-8.29-.59-1.37-1.76-2.05-3.61-2.05s-3.12.78-3.61,2.05c-.29.78-.29,1.17-.29,4.78,0,3.22.1,4.39.68,5.75,1.17,2.54,4.58,3.61,9.07,5.56,5.85,2.63,10.05,5.17,11.9,9.46,1.37,3.02,1.56,5.56,1.56,12.39,0,6.24-.2,8.49-1.46,11.31-2.63,5.75-8.68,8.78-17.56,8.78s-14.82-3.22-17.26-8.58Z"/>
      <path class="cls-4" d="M620.9,1593.57h20.58c7.41,0,11.9,2.05,14.04,6.73,1.07,2.63,1.37,4.97,1.37,12.87s-.29,9.95-1.37,12.48c-2.15,4.68-6.63,6.83-14.04,6.83h-6.83v29.94h-13.75v-68.86ZM637.57,1621.66c2.44,0,4.1-.59,4.78-2.15.39-.88.59-1.56.59-6.44s-.2-5.56-.59-6.53c-.68-1.46-2.34-2.05-4.78-2.05h-2.93v17.17h2.93Z"/>
      <path class="cls-4" d="M683.51,1651.5h-13.65l-1.56,10.92h-13.85l11.61-68.86h21.26l11.61,68.86h-13.85l-1.56-10.92ZM681.86,1639.99l-5.07-35.31h-.2l-5.07,35.31h10.34Z"/>
      <path class="cls-4" d="M737.55,1636.78v25.65h-13.75v-25.26c0-3.41-1.27-4.68-4.68-4.68h-3.41v29.94h-13.75v-68.86h20.77c7.31,0,11.9,1.85,14.04,6.53,1.07,2.34,1.37,4.58,1.37,11.8,0,6.83-.29,8.29-1.07,10.14-.98,2.15-2.54,3.61-4.97,4.49,4.19,1.66,5.46,5.17,5.46,10.24ZM724.09,1612.49c0-4.29-.1-4.88-.49-5.75-.78-1.56-2.24-2.15-4.58-2.15h-3.32v16.87h3.41c2.34,0,3.71-.59,4.49-2.15.39-.88.49-1.56.49-6.83Z"/>
      <path class="cls-4" d="M779,1636.78v25.65h-13.75v-25.26c0-3.41-1.27-4.68-4.68-4.68h-3.41v29.94h-13.75v-68.86h20.77c7.31,0,11.9,1.85,14.04,6.53,1.07,2.34,1.37,4.58,1.37,11.8,0,6.83-.29,8.29-1.07,10.14-.98,2.15-2.54,3.61-4.97,4.49,4.19,1.66,5.46,5.17,5.46,10.24ZM765.54,1612.49c0-4.29-.1-4.88-.49-5.75-.78-1.56-2.24-2.15-4.58-2.15h-3.32v16.87h3.41c2.34,0,3.71-.59,4.49-2.15.39-.88.49-1.56.49-6.83Z"/>
      <path class="cls-4" d="M811.08,1651.5h-13.65l-1.56,10.92h-13.85l11.61-68.86h21.26l11.61,68.86h-13.85l-1.56-10.92ZM809.43,1639.99l-5.07-35.31h-.2l-5.07,35.31h10.34Z"/>
      <path class="cls-4" d="M829.52,1593.57h13.75v68.86h-13.75v-68.86Z"/>
      <path class="cls-4" d="M848.93,1593.57h12.87l15.12,37.45v-37.45h13.36v68.86h-12.58l-15.51-38.33v38.33h-13.26v-68.86Z"/>
      <path class="cls-4" d="M895.74,1655.11c-1.17-2.63-1.46-4.39-1.46-13.65h14.53c0,6.63.1,7.41.49,8.39.59,1.46,1.85,2.34,4,2.34,1.95,0,3.32-.78,3.9-2.15.39-.78.39-1.37.39-5.56,0-3.61-.1-4.68-.68-6.14-1.37-2.93-5.07-4.1-9.56-6.05-5.07-2.54-8.97-5.17-10.83-9.27-1.27-2.83-1.56-5.75-1.56-11.8,0-5.56.29-7.7,1.56-10.44,2.44-5.46,8-8.49,16.48-8.49s13.75,2.73,16.29,8.19c1.17,2.73,1.46,4.29,1.46,13.46h-13.95c0-6.53-.1-7.31-.49-8.29-.59-1.37-1.76-2.05-3.61-2.05s-3.12.78-3.61,2.05c-.29.78-.29,1.17-.29,4.78,0,3.22.1,4.39.68,5.75,1.17,2.54,4.58,3.61,9.07,5.56,5.85,2.63,10.05,5.17,11.9,9.46,1.37,3.02,1.56,5.56,1.56,12.39,0,6.24-.2,8.49-1.46,11.31-2.63,5.75-8.68,8.78-17.56,8.78s-14.82-3.22-17.26-8.58Z"/>
      <path class="cls-4" d="M948.5,1593.57h18.53c9.36,0,15.61,3.8,18.63,10.53,1.76,3.8,2.24,7.02,2.24,23.9s-.49,20.09-2.24,23.9c-3.02,6.73-9.27,10.53-18.63,10.53h-18.53v-68.86ZM965.48,1650.53c3.9,0,6.05-1.27,7.22-3.8.78-1.66.98-3.22.98-18.53s-.2-17.26-.98-18.92c-1.17-2.54-3.32-3.8-7.22-3.8h-3.22v45.06h3.22Z"/>
      <path class="cls-4" d="M992.2,1645.46v-51.89h13.85v51.69c0,3.9,1.46,6.05,5.07,6.05,3.8,0,5.36-2.15,5.36-6.05v-51.69h13.75v51.89c0,12.29-5.56,18.24-19.12,18.24s-18.92-5.95-18.92-18.24Z"/>
      <path class="cls-4" d="M1047.79,1593.57h12.87l15.12,37.45v-37.45h13.36v68.86h-12.58l-15.51-38.33v38.33h-13.26v-68.86Z"/>
      <path class="cls-4" d="M1094.31,1645.46v-51.89h13.85v51.69c0,3.9,1.46,6.05,5.07,6.05,3.8,0,5.36-2.15,5.36-6.05v-51.69h13.75v51.89c0,12.29-5.56,18.24-19.12,18.24s-18.92-5.95-18.92-18.24Z"/>
      <path class="cls-4" d="M1137.52,1593.57h16.87l9.27,38.92,9.36-38.92h16.78v68.86h-13.17v-40.96l-9.17,40.96h-7.71l-9.07-40.96v40.96h-13.17v-68.86Z"/>
      <path class="cls-4" d="M1195.45,1593.57h27.99v12.29h-14.24v14.34h13.95v12h-13.95v18.04h14.24v12.19h-27.99v-68.86ZM1209.89,1578.55h12.97l-8.58,11.22h-11.51l7.12-11.22Z"/>
      <path class="cls-4" d="M1263.63,1636.78v25.65h-13.75v-25.26c0-3.41-1.27-4.68-4.68-4.68h-3.41v29.94h-13.75v-68.86h20.77c7.31,0,11.9,1.85,14.04,6.53,1.07,2.34,1.37,4.58,1.37,11.8,0,6.83-.29,8.29-1.07,10.14-.97,2.15-2.54,3.61-4.97,4.49,4.19,1.66,5.46,5.17,5.46,10.24ZM1250.17,1612.49c0-4.29-.1-4.88-.49-5.75-.78-1.56-2.24-2.15-4.58-2.15h-3.32v16.87h3.41c2.34,0,3.71-.59,4.49-2.15.39-.88.49-1.56.49-6.83Z"/>
      <path class="cls-4" d="M1269.48,1593.57h13.75v68.86h-13.75v-68.86Z"/>
      <path class="cls-4" d="M1320.29,1660.96l5.36,10.92-11.51,4.97-5.85-13.17c-8.78-.2-14.82-4-17.85-10.83-1.85-4.29-2.34-8.58-2.34-24.87s.49-20.58,2.34-24.87c3.12-7.02,9.36-10.83,18.43-10.83s15.31,3.8,18.43,10.83c1.95,4.29,2.44,8.58,2.44,24.87s-.49,20.58-2.44,24.87c-1.56,3.51-3.9,6.24-7.02,8.1ZM1308.88,1651.11c3.02,0,4.78-1.27,5.75-3.61.68-1.76.97-3.51.97-19.51s-.2-17.75-.97-19.51c-.98-2.34-2.73-3.61-5.75-3.61s-4.78,1.27-5.75,3.61c-.68,1.76-.88,3.51-.88,19.51s.2,17.75.98,19.51c.97,2.34,2.73,3.61,5.66,3.61Z"/>
      <path class="cls-4" d="M1334.05,1645.46v-51.89h13.85v51.69c0,3.9,1.46,6.05,5.07,6.05,3.8,0,5.36-2.15,5.36-6.05v-51.69h13.75v51.89c0,12.29-5.56,18.24-19.12,18.24s-18.92-5.95-18.92-18.24Z"/>
      <path class="cls-4" d="M1377.25,1593.57h27.99v12.29h-14.24v14.34h13.95v12h-13.95v18.04h14.24v12.19h-27.99v-68.86Z"/>
    </g>
    <g>
      <path class="cls-4" d="M507.77,1309.99h44.56c.22,0,.33.11.33.33v143.78c0,.22-.11.33-.33.33h-44.56c-.22,0-.33-.11-.33-.33v-143.78c0-.22.11-.33.33-.33ZM507.77,1504.62h110.65c.11,0,.17.11.17.33v42.4c0,.22-.06.33-.17.33h-110.65c-.22,0-.33-.11-.33-.33v-42.4c0-.22.11-.33.33-.33Z"/>
      <path class="cls-4" d="M936.18,1308.5h56.65c40.42,0,69.18,6.74,86.3,20.21,3.09,1.66,8.01,6.07,14.74,13.25,21.2,23.63,31.8,53.5,31.8,89.61,0,31.14-8.78,57.92-26.34,80.34-7.51,8.39-13.58,14.08-18.22,17.06-6.29,4.53-11.87,7.79-16.73,9.77-11.93,5.96-35.67,8.94-71.23,8.94h-56.98c-.22,0-.33-.11-.33-.33v-144.44c0-.11.11-.17.33-.17h44.72c.22,0,.33.06.33.17v100.21h21.86c24.18,0,40.86-3.48,50.02-10.44,4.75-3.31,9.22-7.89,13.42-13.75,8.72-12.92,13.09-29.1,13.09-48.53,0-27.83-8.5-48.75-25.51-62.78-13.14-10.16-31.64-15.24-55.49-15.24h-62.45c-.22,0-.33-.05-.33-.17v-43.4c0-.22.11-.33.33-.33Z"/>
      <path class="cls-4" d="M1214.9,1309.33h43.07c1.1,1.55,30.92,47.26,89.45,137.15,8.28,12.59,12.48,19.11,12.59,19.54h.17v-61.45c0-.22.11-.33.33-.33h44.72c.22.11.33.22.33.33v142.78c0,.22-.11.33-.33.33h-43.07c-3.09-4.41-28.32-43.01-75.7-115.78-16.12-24.52-24.9-37.99-26.34-40.42h-.17v155.87c0,.22-.11.33-.33.33h-44.72c-.22,0-.33-.11-.33-.33v-237.7c0-.22.11-.33.33-.33ZM1360.5,1309.33h44.72c.22,0,.33.11.33.33v43.89c0,.22-.11.33-.33.33h-44.72c-.22,0-.33-.11-.33-.33v-43.89c0-.22.11-.33.33-.33Z"/>
      <path class="cls-4" d="M752.47,1331.85l16.52-23.16c-1.27-.01-7.2-.03-8.5-.03h-51.18c-.22,0-.33.11-.33.33v43.73c0,.22.11.33.33.33h45.39c20.43,0,32.68.94,36.77,2.82,10.27,3.65,15.4,10.99,15.4,22.03s-4.86,18.11-14.58,21.87c-2.76,1.55-14.63,2.32-35.61,2.32h-47.37c-.22,0-.33.11-.33.33v144.94c0,.22.11.33.33.33h44.89c.22,0,.33-.11.33-.33v-100.88c2.32-.11,4.03-.17,5.13-.17h1.16c14.58,0,26.45-.77,35.61-2.32,2.43,0,7.62-1.54,15.57-4.64,26.06-12.03,39.09-32.47,39.09-61.29,0-12.47-.55-19.19-5.17-28.73-44.69,3.72-93.46-17.49-93.46-17.49Z"/>
    </g>
    <g>
      <path class="cls-4" d="M712,277.55l326.22,342.06c-76.14-48.27-219.63-140.16-296.39-187.34-55.25-44.98-34.72-125.93-29.83-154.72Z"/>
      <g>
        <path class="cls-3" d="M1266.87,518.22c-9.29-1.9-18.15,3.08-19.79,11.11-1.64,8.03,4.57,16.08,13.86,17.97,9.29,1.9,18.15-3.08,19.79-11.11,1.64-8.03-4.57-16.08-13.86-17.97Z"/>
        <path class="cls-4" d="M1351.38,530.13l-6.52,13.98-2.8-17.71c-14.91-25.17-58.89-57.59-123.03-50.33-49.4,5.59-101.59,47.53-164.04,33.55,45.67,50.33,86.68,49.4,125.83,50.33-10.25,10.25-29.83,9.32-43.81,7.46-13.98,21.44-34.49,56.85-39.15,88.54,15.84,9.32,44.24,36.23,53.42,50.34-10.54-8.4-480.29-278.69-645.71-381.53-2.25,62.79,5.1,186.72,79.67,227.73,98.98,54.44,503.85,176.65,511.07,182.87-18.02,7.27-421.6-115.76-553.95-153.98,7.46,105.32,56.48,201.04,163.11,205.98,140.74,6.52,329.89-5.37,383.07-6.52-137.94,37.28-388.14,46.14-418.49,50.33,46.6,76.43,115.04,117.06,201.32,92.27,87.61-25.17,214.06-92.46,225.56-105.32-10.25,28.89-97.86,75.5-123.03,85.75-6.52,29.83,6.84,29.77-13.62,63.02-20.87,33.91-366.03,254.33-384.87,266.72,19.54,23.63,102.1,89.68,196.17,29.03,65.3-35.35,127.75-216.16,252.64-250.65-75.5,24.23-177.8,208.3-178.95,209.71,0,0-68.54,103.7-68.97,103.46,55.04,20.35,120.43,17.48,148.2-38.21,28.49-57.14,54.99-197.59,116.51-252.58,28.05-25.07,81.82-26.87,134.21-68.04,91.34-71.77,96-164.97,91.41-214.66-1.69-18.25-6.75-64.03-1-90.12,3.01-31.67,19.91-47.05,42.54-68.66,7.94-7.5,17.48-13.12,27.46-18.6,24.94-13.72,78.2-17.12,78.2-17.12-12.12-9.32-35.42-27.03-62.45-27.03ZM1297.15,544.84c-5.9,4.96-18.49,12.9-35.82,12.9-24.85,0-31.06-24.85-31.06-24.85-12.42-6.21-31.06,0-31.06,0,0,0,21.02-27.22,57.45-27.22s47.72,39.09,47.72,39.09c0,0-4.17-2.5-7.24.08Z"/>
      </g>
    </g>
    <path class="cls-7" d="M1151.28,706.3c-10.54-8.4-480.29-278.69-645.71-381.53-2.25,62.79,5.1,186.72,79.67,227.73,98.98,54.44,503.85,176.65,511.07,182.87"/>
    <path class="cls-2" d="M1088.55,780.85c-137.94,37.28-388.14,46.14-418.49,50.33,46.6,76.43,115.04,117.06,201.32,92.27,87.61-25.17,214.06-92.46,225.56-105.32"/>
    <path class="cls-6" d="M960.29,966.91c-20.87,33.91-366.03,254.33-384.87,266.72,19.54,23.63,102.1,89.68,196.17,29.03,65.3-35.35,127.75-216.16,252.64-250.65"/>
    <path class="cls-5" d="M1024.24,1012c-75.5,24.23-177.8,208.3-178.95,209.71,0,0-68.54,103.7-68.97,103.46,55.04,20.35,120.43,17.48,148.2-38.21,28.49-57.14,54.99-197.59,116.51-252.58"/>
  </g>
</svg>