<svg id="Calque_1" data-name="Calque 1" xmlns="http://www.w3.org/2000/svg" xmlns:xlink="http://www.w3.org/1999/xlink" viewBox="0 0 2621 1920"><defs><style>.cls-1{fill:none;}.cls-2{fill:#004771;}.cls-3{clip-path:url(#clip-path);}.cls-4{fill:#fff;}.cls-5{fill:#29eaf0;}.cls-6{clip-path:url(#clip-path-2);}.cls-7{fill:url(#Dégradé_sans_nom);}.cls-8{clip-path:url(#clip-path-3);}.cls-9{fill:url(#Dégradé_sans_nom_2);}.cls-10{clip-path:url(#clip-path-4);}.cls-11{fill:url(#Dégradé_sans_nom_3);}.cls-12{clip-path:url(#clip-path-5);}.cls-13{fill:url(#Dégradé_sans_nom_4);}</style><clipPath id="clip-path"><rect class="cls-1" width="2621" height="1920"/></clipPath><clipPath id="clip-path-2"><path class="cls-1" d="M414,662.37c115.69,63.63,588.9,206.47,597.35,213.74l64.24-34c-12.32-9.82-561.37-325.74-754.71-445.93-2.63,73.38,6,218.24,93.12,266.17"/></clipPath><linearGradient id="Dégradé_sans_nom" y1="1920.06" x2="1" y2="1920.06" gradientTransform="matrix(0, 755.11, 755.11, 0, -1449149.95, 281.9)" gradientUnits="userSpaceOnUse"><stop offset="0" stop-color="#2293de"/><stop offset="0.04" stop-color="#239fe1"/><stop offset="0.17" stop-color="#26c0e7"/><stop offset="0.29" stop-color="#27d7ec"/><stop offset="0.41" stop-color="#29e5ef"/><stop offset="0.51" stop-color="#29eaf0"/><stop offset="0.55" stop-color="#33ebf1"/><stop offset="0.62" stop-color="#4eeef3"/><stop offset="0.71" stop-color="#7af2f6"/><stop offset="0.81" stop-color="#b7f8fa"/><stop offset="0.92" stop-color="#fff"/><stop offset="1" stop-color="#fff"/></linearGradient><clipPath id="clip-path-3"><path class="cls-1" d="M513.15,988.1c54.47,89.33,134.46,136.82,235.31,107.85,102.4-29.42,250.2-108.07,263.63-123.1l-9.8-43.58c-161.23,43.58-453.67,53.94-489.14,58.83"/></clipPath><linearGradient id="Dégradé_sans_nom_2" y1="1919.98" x2="1" y2="1919.98" gradientTransform="matrix(498.94, 0, 0, -498.94, 513.15, 958987.52)" gradientUnits="userSpaceOnUse"><stop offset="0" stop-color="#2293de"/><stop offset="0.23" stop-color="#2293de"/><stop offset="0.31" stop-color="#23a1e1"/><stop offset="0.45" stop-color="#26c5e8"/><stop offset="0.57" stop-color="#29eaf0"/><stop offset="0.61" stop-color="#37ebf1"/><stop offset="0.68" stop-color="#5deff4"/><stop offset="0.77" stop-color="#9af5f8"/><stop offset="0.89" stop-color="#edfdfe"/><stop offset="0.91" stop-color="#fff"/><stop offset="1" stop-color="#fff"/></linearGradient><clipPath id="clip-path-4"><path class="cls-1" d="M402.53,1458.48c22.84,27.61,119.33,104.82,229.3,33.92,76.32-41.31,149.31-252.65,295.29-293l-74.74-52.71C828,1186.37,424.55,1444,402.53,1458.48"/></clipPath><linearGradient id="Dégradé_sans_nom_3" y1="1920" x2="1" y2="1920" gradientTransform="matrix(523.16, 0, 0, -523.16, 451.97, 1005828.27)" gradientUnits="userSpaceOnUse"><stop offset="0" stop-color="#2293de"/><stop offset="0.06" stop-color="#2293de"/><stop offset="0.13" stop-color="#23a1e1"/><stop offset="0.26" stop-color="#26c5e8"/><stop offset="0.38" stop-color="#29eaf0"/><stop offset="0.39" stop-color="#32ebf1"/><stop offset="0.44" stop-color="#62f0f4"/><stop offset="0.49" stop-color="#8cf4f7"/><stop offset="0.55" stop-color="#aff7f9"/><stop offset="0.61" stop-color="#ccfafb"/><stop offset="0.67" stop-color="#e3fcfd"/><stop offset="0.73" stop-color="#f3fefe"/><stop offset="0.81" stop-color="#fcffff"/><stop offset="0.91" stop-color="#fff"/><stop offset="1" stop-color="#fff"/></linearGradient><clipPath id="clip-path-5"><path class="cls-1" d="M637.34,1565.48h0M718,1444.55s-80,121.06-80.62,120.93c64.34,23.79,140.76,20.43,173.21-44.67,33.3-66.79,64.28-231,136.18-295.22l-19.61-26.15C838.88,1227.77,719.3,1442.91,718,1444.55"/></clipPath><linearGradient id="Dégradé_sans_nom_4" y1="1920.09" x2="1" y2="1920.09" gradientTransform="matrix(309.39, 0, 0, -309.39, 617.91, 595446.41)" gradientUnits="userSpaceOnUse"><stop offset="0" stop-color="#2293de"/><stop offset="0.06" stop-color="#2293de"/><stop offset="0.13" stop-color="#23a1e1"/><stop offset="0.28" stop-color="#26c5e8"/><stop offset="0.4" stop-color="#29eaf0"/><stop offset="0.43" stop-color="#35ebf1"/><stop offset="0.54" stop-color="#71f1f5"/><stop offset="0.65" stop-color="#a4f6f9"/><stop offset="0.75" stop-color="#cbfafb"/><stop offset="0.84" stop-color="#e8fdfd"/><stop offset="0.92" stop-color="#f9feff"/><stop offset="0.98" stop-color="#fff"/><stop offset="1" stop-color="#fff"/></linearGradient></defs><title>Plan de travail 1</title><rect class="cls-2" x="0.76" y="1.45" width="2620.24" height="1918"/><g class="cls-3"><path class="cls-4" d="M562.17,341,943.46,740.81c-89-56.42-256.71-163.83-346.43-219-64.57-52.58-40.58-147.2-34.86-180.84"/><path class="cls-5" d="M1210.71,622.3c-10.86-2.22-21.22,3.6-23.13,13s5.33,18.8,16.2,21,21.21-3.6,23.13-13-5.34-18.79-16.2-21"/><path class="cls-4" d="M1309.5,636.22l-7.63,16.34-3.27-20.69c-17.43-29.42-68.82-67.32-143.8-58.83-57.73,6.54-118.74,55.56-191.73,39.22,53.38,58.82,101.31,57.73,147.07,58.82-12,12-34.86,10.9-51.2,8.72-16.34,25.06-40.31,66.45-45.76,103.49,18.52,10.9,51.71,42.34,62.44,58.84-12.33-9.82-561.38-325.74-754.72-445.94-2.63,73.39,6,218.25,93.12,266.18,115.69,63.63,588.9,206.47,597.35,213.74-21.06,8.5-492.77-135.3-647.47-180,8.72,123.1,66,235,190.65,240.76,164.5,7.62,385.58-6.28,447.74-7.63-161.23,43.58-453.67,53.94-489.14,58.83,54.47,89.33,134.46,136.82,235.31,107.85,102.4-29.42,250.2-108.08,263.63-123.1-12,33.77-114.38,88.24-143.8,100.22-7.62,34.86,8,34.8-15.91,73.66C828,1186.37,424.55,1444,402.53,1458.48c22.84,27.61,119.34,104.82,229.3,33.92,76.32-41.31,149.31-252.65,295.29-293C838.88,1227.77,719.3,1442.91,718,1444.55c0,0-80.12,121.21-80.62,120.93,64.34,23.79,140.76,20.43,173.21-44.67,33.3-66.79,64.28-231,136.18-295.22,32.78-29.31,95.63-31.41,156.87-79.53,106.76-83.88,112.21-192.82,106.84-250.89-2-21.34-7.89-74.84-1.17-105.34,3.52-37,23.28-55,49.73-80.26,9.28-8.77,20.43-15.33,32.09-21.74,29.15-16,91.4-20,91.4-20-14.16-10.9-41.4-31.6-73-31.6m-63.39,17.19a66,66,0,0,1-41.87,15.08c-29,0-36.3-29-36.3-29-14.52-7.26-36.3,0-36.3,0s24.56-31.82,67.15-31.82,55.78,45.69,55.78,45.69-4.87-2.92-8.46.1"/></g><g class="cls-6"><rect class="cls-7" x="318.49" y="191.33" width="756.91" height="889.66" transform="translate(-175.56 995.54) rotate(-64.78)"/></g><g class="cls-8"><rect class="cls-9" x="513.15" y="929.27" width="498.94" height="195.65"/></g><g class="cls-10"><rect class="cls-11" x="329.91" y="1028.15" width="669.84" height="653.74" transform="translate(-704.04 719.19) rotate(-38.95)"/></g><g class="cls-12"><rect class="cls-13" x="543.98" y="1148.29" width="496.11" height="492.13" transform="translate(-767.93 1022.82) rotate(-47.01)"/></g><path class="cls-4" d="M1406.16,1073.51h3.61v44.74H1427v3.26h-20.81Z"/><path class="cls-4" d="M1432.48,1073.51H1460v3.26h-23.94v18.63h23.73v3.27h-23.73v19.58H1460v3.26h-27.54Z"/><path class="cls-4" d="M1467.84,1114.1a21.18,21.18,0,0,1-1.63-8.77h3.8a18.16,18.16,0,0,0,1.3,7.27c1.9,4.22,6.18,6.67,13.32,6.67,6.8,0,11.29-2.31,13-6.12a8.9,8.9,0,0,0,.82-4,9.27,9.27,0,0,0-.75-3.74c-1.84-4.15-7.55-5.51-14.42-7.07-7.14-1.57-12.92-3.47-15-8.23a12,12,0,0,1-.89-4.76,11.59,11.59,0,0,1,1.09-5.1c2-4.69,7.55-7.82,15.16-7.82,7.89,0,12.85,3.2,15.1,8.23a20,20,0,0,1,1.56,8.16h-3.74a15.9,15.9,0,0,0-1.22-6.73c-1.77-3.95-5.65-6.33-11.77-6.33s-10.19,2.31-11.69,5.78a8.24,8.24,0,0,0-.75,3.61,8,8,0,0,0,.68,3.46c1.77,4,7.41,5.1,14.28,6.8,7.14,1.7,13.06,3.54,15.3,8.43a14,14,0,0,1-.2,10.61c-2.25,5.1-8,8.16-16.6,8.16C1475.45,1122.6,1470.22,1119.27,1467.84,1114.1Z"/><path class="cls-4" d="M1524.68,1073.51h15.44c7.21,0,12.24,2.17,14.35,6.8a16.36,16.36,0,0,1,0,11.69c-2.11,4.56-7.14,6.8-14.35,6.8h-11.83v22.71h-3.61Zm15.1,22c5.64,0,9.59-1.43,11.22-5a12.11,12.11,0,0,0,0-8.71c-1.63-3.6-5.58-5-11.22-5h-11.49v18.77Z"/><path class="cls-4" d="M1590,1107.84h-23.52l-5,13.67h-3.8l17.88-48h5.37l17.88,48H1595Zm-1.22-3.26-10.47-28.35h-.14l-10.47,28.35Z"/><path class="cls-4" d="M1616.14,1098.73h-8.7v22.78h-3.6v-48h16.52c7.89,0,12.58,2.38,14.55,6.8a15,15,0,0,1,0,11.56c-2,4.48-6.6,6.86-14.35,6.86h-.07l18.3,22.78h-4.49Zm-8.7-3.19H1620c6.46,0,10-1.7,11.49-5a10.12,10.12,0,0,0,.89-4.42,10.73,10.73,0,0,0-.82-4.42c-1.56-3.34-5.17-5-11.56-5h-12.51Z"/><path class="cls-4" d="M1656.19,1098.73h-8.7v22.78h-3.6v-48h16.52c7.89,0,12.58,2.38,14.55,6.8a15,15,0,0,1,0,11.56c-2,4.48-6.6,6.86-14.35,6.86h-.07l18.3,22.78h-4.49Zm-8.7-3.19H1660c6.46,0,10-1.7,11.49-5a10.12,10.12,0,0,0,.89-4.42,10.73,10.73,0,0,0-.82-4.42c-1.56-3.34-5.17-5-11.56-5h-12.51Z"/><path class="cls-4" d="M1711.75,1107.84h-23.53l-5,13.67h-3.81l17.89-48h5.37l17.88,48h-3.74Zm-1.23-3.26-10.47-28.35h-.13l-10.47,28.35Z"/><path class="cls-4" d="M1725.62,1073.51h3.61v48h-3.61Z"/><path class="cls-4" d="M1739,1073.51h4.22l27.74,42.83v-42.83h3.53v48h-4.21l-27.74-42.83v42.83H1739Z"/><path class="cls-4" d="M1784,1114.1a21.34,21.34,0,0,1-1.63-8.77h3.81a18.34,18.34,0,0,0,1.29,7.27c1.9,4.22,6.19,6.67,13.33,6.67,6.8,0,11.28-2.31,13-6.12a8.77,8.77,0,0,0,.82-4,9.1,9.1,0,0,0-.75-3.74c-1.83-4.15-7.55-5.51-14.41-7.07-7.14-1.57-12.92-3.47-15-8.23a12.22,12.22,0,0,1-.88-4.76,11.73,11.73,0,0,1,1.08-5.1c2-4.69,7.55-7.82,15.17-7.82,7.88,0,12.85,3.2,15.09,8.23a19.84,19.84,0,0,1,1.57,8.16h-3.74a15.75,15.75,0,0,0-1.23-6.73c-1.77-3.95-5.64-6.33-11.76-6.33s-10.2,2.31-11.7,5.78a8.23,8.23,0,0,0-.74,3.61,7.81,7.81,0,0,0,.68,3.46c1.76,4,7.41,5.1,14.27,6.8,7.14,1.7,13.06,3.54,15.3,8.43a13.84,13.84,0,0,1-.2,10.61c-2.24,5.1-8,8.16-16.59,8.16C1791.65,1122.6,1786.41,1119.27,1784,1114.1Z"/><path class="cls-4" d="M1840.88,1073.51H1856c10.13,0,16.93,3.94,20.13,11.08a37.29,37.29,0,0,1,0,25.84c-3.2,7.14-10,11.08-20.13,11.08h-15.16Zm14.89,44.74c8.77,0,14.21-3.13,16.93-9.11,1.36-3,2-6.67,2-11.63s-.61-8.63-2-11.63c-2.72-6-8.16-9.11-16.93-9.11h-11.29v41.48Z"/><path class="cls-4" d="M1886.37,1106.69v-33.18h3.6v33c0,8.71,4,12.58,13.06,12.58s13-3.87,13-12.58v-33h3.6v33.18c0,10.74-5.24,15.91-16.59,15.91S1886.37,1117.43,1886.37,1106.69Z"/><path class="cls-4" d="M1943.29,1073.51h4.21l27.74,42.83v-42.83h3.54v48h-4.22l-27.74-42.83v42.83h-3.53Z"/><path class="cls-4" d="M1988,1106.69v-33.18h3.6v33c0,8.71,3.95,12.58,13.06,12.58s13-3.87,13-12.58v-33h3.61v33.18c0,10.74-5.24,15.91-16.59,15.91S1988,1117.43,1988,1106.69Z"/><path class="cls-4" d="M2030.53,1073.51h4.83l17.81,42,17.95-42h4.76v48h-3.54v-42.77l-18.08,42.77h-2.11l-18.09-42.77v42.77h-3.53Z"/><path class="cls-4" d="M2085.54,1073.51h27.54v3.26h-23.94v18.63h23.73v3.27h-23.73v19.58h23.94v3.26h-27.54Zm17.95-12.17h4.62l-9.45,8.43h-4.28Z"/><path class="cls-4" d="M2133.27,1098.73h-8.7v22.78H2121v-48h16.52c7.89,0,12.58,2.38,14.55,6.8a15,15,0,0,1,0,11.56c-2,4.48-6.6,6.86-14.35,6.86h-.06l18.29,22.78h-4.49Zm-8.7-3.19h12.51c6.46,0,10-1.7,11.49-5a10.12,10.12,0,0,0,.89-4.42,10.73,10.73,0,0,0-.82-4.42c-1.56-3.34-5.17-5-11.56-5h-12.51Z"/><path class="cls-4" d="M2161,1073.51h3.6v48H2161Z"/><path class="cls-4" d="M2216.84,1097.51a34.31,34.31,0,0,1-2.51,13.74,17.92,17.92,0,0,1-11.29,10.13l6.05,9.17-2.86,1.91-6.59-10.2a35.53,35.53,0,0,1-4.76.34c-10.13,0-16.32-4.56-19.38-11.35a37.85,37.85,0,0,1,0-27.47c3.06-6.8,9.25-11.36,19.38-11.36s16.39,4.56,19.45,11.36A34.23,34.23,0,0,1,2216.84,1097.51Zm-3.74,0a29.53,29.53,0,0,0-2.24-12.31c-2.45-5.5-7.48-9.24-16-9.24s-13.46,3.74-16,9.24a36,36,0,0,0,0,24.62c2.52,5.5,7.48,9.24,16,9.24.95,0,1.77-.06,2.65-.13l-4-6.19,2.72-1.7,4.76,7.28a14.88,14.88,0,0,0,9.86-8.5A29.5,29.5,0,0,0,2213.1,1097.51Z"/><path class="cls-4" d="M2224.73,1106.69v-33.18h3.61v33c0,8.71,3.94,12.58,13,12.58s13-3.87,13-12.58v-33h3.6v33.18c0,10.74-5.23,15.91-16.59,15.91S2224.73,1117.43,2224.73,1106.69Z"/><path class="cls-4" d="M2267.23,1073.51h27.54v3.26h-23.93v18.63h23.73v3.27h-23.73v19.58h23.93v3.26h-27.54Z"/><g class="cls-3"><path class="cls-4" d="M1405.51,797.47h44.14a.29.29,0,0,1,.33.33V940.26c0,.22-.11.32-.33.32h-44.14c-.23,0-.33-.1-.33-.32V797.8a.29.29,0,0,1,.33-.33m0,192.84h109.63c.11,0,.16.11.16.33v42c0,.22,0,.32-.16.32H1405.51c-.23,0-.33-.1-.33-.32v-42a.29.29,0,0,1,.33-.33"/><path class="cls-4" d="M1605.19,796.16h50.71q46.61,0,63,12.8,8.86,5.58,15.92,16.25,10.83,16.41,10.83,39.71,0,42.84-38.73,60.73-11.82,4.59-15.42,4.59-13.63,2.31-35.29,2.3h-1.15c-1.1,0-2.79.06-5.09.17v100c0,.22-.11.32-.33.32h-44.47c-.22,0-.33-.1-.33-.32V889.05a.29.29,0,0,1,.33-.33h46.94q31.17,0,35.28-2.3,14.44-5.56,14.44-21.66,0-16.41-15.26-21.83-6.08-2.79-36.43-2.79h-45a.29.29,0,0,1-.33-.33V796.49a.29.29,0,0,1,.33-.33"/><path class="cls-4" d="M1830,796h56.13q60.06,0,85.51,20,4.59,2.46,14.6,13.13,31.52,35.11,31.51,88.79,0,46.27-26.09,79.59-11.16,12.48-18.05,16.91a83.9,83.9,0,0,1-16.58,9.68q-17.73,8.87-70.57,8.86H1830c-.22,0-.33-.1-.33-.32V889.54c0-.1.11-.16.33-.16h44.31c.22,0,.33.06.33.16v99.3h21.66q36,0,49.57-10.34a56.52,56.52,0,0,0,13.29-13.63q13-19.2,13-48.08,0-41.37-25.28-62.2-19.53-15.11-55-15.1H1830c-.22,0-.33-.06-.33-.17v-43a.29.29,0,0,1,.33-.33"/><path class="cls-4" d="M2106.14,796.81h42.67q1.65,2.31,88.63,135.9,12.32,18.7,12.47,19.36h.17V891.18a.28.28,0,0,1,.32-.32h44.32c.21.11.33.22.33.32v141.48a.29.29,0,0,1-.33.32h-42.67q-4.61-6.56-75-114.72-24-36.43-26.09-40h-.17v154.44a.28.28,0,0,1-.32.32h-44.32c-.22,0-.33-.1-.33-.32V797.14a.3.3,0,0,1,.33-.33m144.26,0h44.32a.3.3,0,0,1,.33.33v43.5a.29.29,0,0,1-.33.32H2250.4a.28.28,0,0,1-.32-.32v-43.5a.29.29,0,0,1,.32-.33"/></g></svg>